<svg xmlns="http://www.w3.org/2000/svg" width="1036" height="817" style="width:100%;height:100%"><defs><clipPath id="a"><path d="M0 0h1036v817H0z"/></clipPath><clipPath id="e"><path fill="#fff" d="M-236-260.5c-46.668 0-84.5 37.832-84.5 84.5s37.832 84.5 84.5 84.5 84.5-37.832 84.5-84.5-37.832-84.5-84.5-84.5"/></clipPath><clipPath id="f"><path fill="#fff" d="M-111.5-384.5c-114.323 0-207 92.677-207 207s92.677 207 207 207 207-92.677 207-207-92.677-207-207-207"/></clipPath><clipPath id="g"><path fill="#fff" d="M-229.5-215c-33.966 0-61.5 27.534-61.5 61.5S-263.466-92-229.5-92s61.5-27.534 61.5-61.5-27.534-61.5-61.5-61.5"/></clipPath><clipPath id="h"><path fill="#fff" d="M-115-392c-118.189 0-214 95.811-214 214s95.811 214 214 214S99-59.811 99-178 3.189-392-115-392"/></clipPath><clipPath id="i"><path fill="#fff" d="M-115-392c-118.189 0-214 95.811-214 214s95.811 214 214 214S99-59.811 99-178 3.189-392-115-392"/></clipPath><clipPath id="j"><path fill="#fff" d="M-115-295.5c-76.491 0-138.5 62.009-138.5 138.5S-191.491-18.5-115-18.5 23.5-80.509 23.5-157-38.509-295.5-115-295.5"/></clipPath><clipPath id="k"><path fill="#fff" d="M-235-213.5c-44.459 0-80.5 36.041-80.5 80.5s36.041 80.5 80.5 80.5 80.5-36.041 80.5-80.5-36.041-80.5-80.5-80.5"/></clipPath><clipPath id="b"><path fill="#fff" d="M32.5-313c-114.323 0-207 92.677-207 207s92.677 207 207 207 207-92.677 207-207-92.677-207-207-207"/></clipPath><clipPath id="c"><path fill="#fff" d="M-20.323-317.771c-114.323 0-207 92.677-207 207s92.677 207 207 207 207-92.677 207-207-92.677-207-207-207"/></clipPath><clipPath id="d"><path fill="#fff" d="M-10.465-305.238c-114.323 0-207 92.677-207 207s92.677 207 207 207 207-92.677 207-207-92.677-207-207-207"/></clipPath><mask id="l"><path fill="#FFF" d="M-430.616-305.81l806.183-10.051c11.747.251 21.923 9.36 23.556 21.044l56.284 539.528c1.821 13.38-7.664 25.189-20.793 25.817l-821.322 44.537c-13.882.691-25.817-9.422-26.885-22.802l-41.71-573.261c-1.131-13.757 10.176-25.063 24.687-24.812z" transform="translate(543.5 334)" display="block"/></mask><mask id="n"><path fill="#FFF" d="M-430.616-305.81l806.183-10.051c11.747.251 21.923 9.36 23.556 21.044l56.284 539.528c1.821 13.38-7.664 25.189-20.793 25.817l-821.322 44.537c-13.882.691-25.817-9.422-26.885-22.802l-41.71-573.261c-1.131-13.757 10.176-25.063 24.687-24.812z" transform="translate(543.5 334)" display="block"/></mask><mask id="m"><path fill="#fff" d="M305.59 79.547c-90.022 0-163 72.977-163 163s72.978 163 163 163 163-72.978 163-163-72.978-163-163-163"/><path d="M305.59 74.221c-92.964 0-168.326 75.362-168.326 168.326s75.362 168.326 168.326 168.326 168.326-75.362 168.326-168.326S398.554 74.221 305.59 74.221"/></mask></defs><g clip-path="url(#a)"><path fill="#FFF" d="M112.884 28.19l806.183-10.051c11.747.251 21.923 9.36 23.556 21.044l56.284 539.528c1.821 13.38-7.664 25.189-20.793 25.817l-821.322 44.537c-13.882.691-25.817-9.422-26.885-22.802L88.197 53.002c-1.131-13.757 10.176-25.063 24.687-24.812z" display="block"/><path fill="#80EBFF" d="M152.458 70.716c.063 3.518-2.953 6.282-6.659 6.156-3.706-.126-6.784-3.077-6.847-6.658-.063-3.518 2.953-6.282 6.659-6.156 3.706.188 6.784 3.14 6.847 6.658z" display="block"/><path fill="#FD7A8C" d="M173.69 70.465c.063 3.518-2.89 6.282-6.596 6.156-3.706-.126-6.784-3.078-6.784-6.596-.063-3.518 2.889-6.282 6.595-6.156 3.643.126 6.722 3.078 6.785 6.596z" display="block"/><path fill="#FEE895" d="M196.304 69.837c.062 3.518-2.89 6.281-6.596 6.093-3.706-.126-6.721-3.077-6.784-6.595-.063-3.518 2.889-6.281 6.596-6.093 3.706.126 6.721 3.14 6.784 6.595z" display="block"/><path fill="#F4F9FE" d="M238.329 68.769l.063.566c.691 8.606 8.417 15.39 17.463 15.264l628.727-10.427c8.418-.126 14.636-7.099 13.82-15.516-.817-8.229-8.103-14.762-16.332-14.699L253.907 52.5c-9.296.126-16.269 7.412-15.578 16.269zM290.654 108.972l-198.185 3.643L129.844 626.2c1.131 13.443 13.066 23.556 26.886 22.803l176.011-9.423-42.087-530.608z" display="block"/><path fill="#956FFF" d="M147.118 182.906l.377 4.084c.126 1.57 1.57 2.826 3.203 2.763l94.036-1.758c1.696-.063 3.016-1.382 2.827-3.016l-.314-4.145c-.126-1.571-1.57-2.827-3.204-2.764l-94.035 1.758c-1.696.063-3.016 1.445-2.89 3.078z" display="block"/><path fill="#D8E1EA" d="M148.877 202.944l.377 4.083c.126 1.571 1.571 2.827 3.204 2.764l82.352-1.445c1.696-.062 3.015-1.381 2.889-3.015l-.314-4.208c-.125-1.571-1.57-2.827-3.203-2.764l-82.352 1.507c-1.822 0-3.141 1.382-2.953 3.078zM150.196 223.171l.377 4.083c.126 1.571 1.571 2.827 3.204 2.764l105.154-2.324c1.696-.063 3.015-1.445 2.827-3.078l-.314-4.209c-.126-1.57-1.57-2.826-3.204-2.764l-105.154 2.325c-1.696.125-3.016 1.57-2.89 3.203zM151.705 243.398l.377 4.146c.126 1.571 1.57 2.827 3.203 2.764l100.066-2.324c1.697-.063 3.016-1.445 2.827-3.078l-.314-4.209c-.126-1.57-1.57-2.826-3.204-2.764l-100.066 2.387c-1.696 0-3.015 1.382-2.889 3.078zM158.237 325.248l.377 4.146c.126 1.57 1.571 2.826 3.204 2.764l82.791-3.141c1.697-.063 3.016-1.445 2.89-3.078l-.314-4.209c-.126-1.57-1.57-2.827-3.204-2.764l-82.791 3.204c-1.759 0-3.079 1.382-2.953 3.078zM155.914 303.01l.377 4.146c.126 1.571 1.57 2.827 3.203 2.764l37.941-1.193c1.696-.063 3.016-1.445 2.89-3.078l-.314-4.209c-.126-1.57-1.571-2.827-3.204-2.764l-38.004 1.319c-1.696-.063-3.015 1.319-2.889 3.015zM145.612 161.486l.314 4.083c.126 1.57 1.57 2.827 3.203 2.764l37.816-.88c1.696-.062 3.015-1.382 2.889-3.015l-.314-4.208c-.125-1.571-1.57-2.827-3.203-2.764l-37.816.942c-1.696.063-3.015 1.445-2.889 3.078zM159.745 346.417l.377 4.146c.126 1.57 1.571 2.826 3.267 2.763l67.779-1.884c1.696-.063 3.015-1.445 2.889-3.078l-.314-4.209c-.126-1.57-1.57-2.826-3.204-2.764l-67.778 1.948c-1.822 0-3.142 1.444-3.016 3.078z" display="block"/><g clip-path="url(#b)" transform="matrix(-1 0 0 1 483 400.5)" display="block"><path fill="#FFFBEB" d="M-95.71-251.041l229.23 1.661c5.327.069 9.271 4.082 8.856 8.994L126.601-64.364c-.415 4.913-4.982 8.718-10.241 8.58l-231.928-6.643c-5.12-.138-8.856-4.289-8.302-9.133l18.404-171.109c.553-4.705 4.843-8.372 9.756-8.372z"/></g><g clip-path="url(#c)" transform="rotate(-3 7926.932 -8940.666)" display="block"><path fill="#FEE895" d="M36.494-137.567l-16.737-24.214c-.439-.659-1.483-.714-2.033-.055L4.273-149.291c-1.153 1.264-3.186 1.374-4.34.22l-4.121-4.066c-.879-.824-2.307-.934-3.296-.165l-16.715 15.835c-1.099.769-.605 2.362.714 2.417l20.081-.06 38.58-.314c1.154.055 1.978-1.209 1.318-2.143z"/></g><g clip-path="url(#d)" transform="rotate(-3 7945.026 -8931.685)" display="block"><path fill="#FEE895" d="M10.688-167.904c.197 2.712-1.514 4.964-4.426 4.964s-5.713-2.077-5.808-4.9c-.092-2.718 1.829-5.01 4.741-5.01 3.026-.026 5.29 2.158 5.493 4.946z"/></g><path fill="#80EBFF" d="M874.382 278.86l-220.727 5.171c-5.397.207-9.48 4.636-8.995 9.756l1.837 31.551c.484 5.051 5.05 8.856 10.378 8.65l222.488-6.764c5.12-.276 8.927-4.566 8.373-9.617l-3.46-30.375c-.484-4.843-4.912-8.58-9.894-8.372z" display="block"/><path fill="#3CBBD2" d="M730.967 303.266l.485 4.705c.207 1.799 1.868 3.183 3.736 3.114l65.108-2.806c1.938-.069 3.391-1.73 3.183-3.598l-.484-4.774c-.208-1.799-1.868-3.183-3.736-3.113l-64.901 2.667c-1.938.138-3.598 1.868-3.391 3.805z" display="block"/><path fill="#F4F9FE" d="M363.624 378.96c1.107 10.448 11.278 18.889 22.695 18.889s19.719-8.372 18.612-18.751c-1.107-10.379-11.209-18.82-22.625-18.889-11.347 0-19.72 8.372-18.682 18.751z" display="block"/><g clip-path="url(#e)" transform="translate(639.5 544)" display="block"><path fill="#D8E1EA" d="M-224.704-176.534l.377 4.083c.126 1.57 1.571 2.827 3.204 2.764l64.826-1.445c1.696-.063 2.953-1.382 2.827-3.015l-.377-4.209c-.126-1.57-1.57-2.827-3.204-2.764l-64.826 1.508c-1.696.063-3.015 1.445-2.827 3.078z"/></g><g clip-path="url(#f)" transform="translate(519.5 562)" display="block"><path fill="#D8E1EA" d="M-103.09-178.984l.377 4.083c.125 1.57 1.57 2.764 3.14 2.764l183.989-4.272c1.633-.063 2.827-1.382 2.701-2.952l-.377-4.146c-.125-1.57-1.507-2.764-3.141-2.764l-183.925 4.209c-1.696.063-2.953 1.444-2.764 3.078z"/></g><g clip-path="url(#g)" transform="translate(715.5 520.5)" display="block"><path fill="#D8E1EA" d="M-223.008-154.8l.377 4.083c.126 1.571 1.571 2.827 3.204 2.764l42.652-.816c1.696-.063 2.953-1.382 2.827-3.078l-.377-4.209c-.126-1.571-1.57-2.827-3.204-2.764l-42.652.879c-1.696.063-3.015 1.508-2.827 3.141z"/></g><g clip-path="url(#h)" transform="translate(739 414)" display="block"><path fill="#D8E1EA" d="M-103.09-178.984l.377 4.083c.125 1.57 1.57 2.764 3.14 2.764l183.989-4.272c1.633-.063 2.827-1.382 2.701-2.952l-.377-4.146c-.125-1.57-1.507-2.764-3.141-2.764l-183.925 4.209c-1.696.063-2.953 1.444-2.764 3.078z"/></g><g clip-path="url(#i)" transform="translate(736.5 394)" display="block"><path fill="#D8E1EA" d="M-103.09-178.984l.377 4.083c.125 1.57 1.57 2.764 3.14 2.764l183.989-4.272c1.633-.063 2.827-1.382 2.701-2.952l-.377-4.146c-.125-1.57-1.507-2.764-3.141-2.764l-183.925 4.209c-1.696.063-2.953 1.444-2.764 3.078z"/></g><g clip-path="url(#j)" transform="translate(739.5 414)" display="block"><path fill="#D8E1EA" d="M-100.769-157.752l.377 4.083c.126 1.57 1.57 2.764 3.141 2.764l113.132-2.576c1.633-.063 2.889-1.382 2.764-3.015l-.377-4.146c-.126-1.57-1.508-2.764-3.141-2.764l-113.069 2.576c-1.696.063-2.953 1.444-2.827 3.078z"/></g><g clip-path="url(#k)" transform="translate(851.5 327)" display="block"><path fill="#D8E1EA" d="M-221.25-133.317l.377 4.083c.126 1.571 1.571 2.827 3.204 2.764l56.158-.817c1.696-.062 2.952-1.444 2.826-3.078l-.377-4.208c-.125-1.571-1.57-2.827-3.203-2.764l-56.158.879c-1.696.063-3.015 1.445-2.827 3.141z"/></g><g mask="url(#n)" display="block"><path fill="#242D70" d="M460.838 304.198l4.221-2.371.002-.001c.561-.312 1.164-.894 1.111-1.74-.052-.838-.715-1.347-1.303-1.594h-.001l-18.283-7.742-.002-.001a2.493 2.493 0 00-.965-.215 1.499 1.499 0 00-1.069.423c-.32.319-.422.725-.424 1.069-.001.335.089.666.215.965l.001.001 7.742 18.284v.002c.248.588.756 1.25 1.594 1.303.846.053 1.428-.55 1.74-1.111l.002-.002 2.354-4.192 5.207 5.206c.889.89 2.227.679 3-.094l.019-.018.017-.02c.691-.767.891-2.082.011-2.962l-5.189-5.19z"/><path stroke-miterlimit="10" stroke="#FFF" stroke-width="2" d="M460.838 304.198l4.221-2.371.002-.001c.561-.312 1.164-.894 1.111-1.74-.052-.838-.715-1.347-1.303-1.594h-.001l-18.283-7.742-.002-.001a2.493 2.493 0 00-.965-.215 1.499 1.499 0 00-1.069.423c-.32.319-.422.725-.424 1.069-.001.335.089.666.215.965l.001.001 7.742 18.284v.002c.248.588.756 1.25 1.594 1.303.846.053 1.428-.55 1.74-1.111l.002-.002 2.354-4.192 5.207 5.206c.889.89 2.227.679 3-.094l.019-.018.017-.02c.691-.767.891-2.082.011-2.962l-5.189-5.19z" fill="none"/></g></g></svg>