<svg xmlns="http://www.w3.org/2000/svg" width="358" height="689" style="width:100%;height:100%"><defs><clipPath id="b"><path d="M0 0h358v689H0z"/></clipPath><clipPath id="e"><path fill="#fff" d="M-21.5-346.5c-15.553 0-42.5 8.178-42.5 42.5s26.947 42.5 42.5 42.5S21-269.678 21-304s-26.947-42.5-42.5-42.5"/></clipPath><clipPath id="f"><path fill="#fff" d="M21-346.5c-15.553 0-42.5 8.178-42.5 42.5S5.447-261.5 21-261.5s42.5-8.178 42.5-42.5-26.947-42.5-42.5-42.5"/></clipPath><clipPath id="g"><path fill="#fff" d="M50-380.5c-36.23 0-99 19.049-99 99s62.77 99 99 99 99-19.049 99-99-62.77-99-99-99"/></clipPath><clipPath id="h"><path fill="#fff" d="M-41-50.5c-38.883 0-106.25 20.444-106.25 106.25S-79.883 162-41 162c38.883 0 106.25-20.444 106.25-106.25S-2.117-50.5-41-50.5"/></clipPath><clipPath id="i"><path fill="#fff" d="M-9.25-102.5c-49.496 0-135.25 26.025-135.25 135.25S-58.746 168-9.25 168C40.246 168 126 141.975 126 32.75S40.246-102.5-9.25-102.5"/></clipPath><clipPath id="j"><path fill="#fff" d="M-8.25-121.5c-49.496 0-135.25 26.025-135.25 135.25S-57.746 149-8.25 149C41.246 149 127 122.975 127 13.75S41.246-121.5-8.25-121.5"/></clipPath><clipPath id="k"><path fill="#fff" d="M-106.25-66C-122.261-66-150-57.582-150-22.25s27.739 43.75 43.75 43.75 43.75-8.418 43.75-43.75S-90.239-66-106.25-66"/></clipPath><clipPath id="o"><path fill="#fff" d="M-79-382.5c-160.715 0-291 130.285-291 291s130.285 291 291 291 291-130.285 291-291-130.285-291-291-291"/></clipPath><clipPath id="p"><path fill="#fff" d="M-79-382.5c-160.715 0-291 130.285-291 291s130.285 291 291 291 291-130.285 291-291-130.285-291-291-291"/></clipPath><clipPath id="q"><path fill="#fff" d="M-79-382.5c-160.715 0-291 130.285-291 291s130.285 291 291 291 291-130.285 291-291-130.285-291-291-291"/></clipPath><mask id="d"><path fill="url(#a)" d="M-162-401.737l2.95 683.764-349.136 1.647-.206-684.035L-162-401.737z"/></mask><mask id="l"><path fill="#FFF" d="M-99.931-343.964l256.975-.346c12.662 0 22.211 9.479 21.173 21.103l-44.213 496.445c-1.107 12.178-12.178 21.38-24.909 20.688l-264.932-14.53c-12.316-.692-21.242-11.071-19.927-23.11l52.654-480.392c1.245-11.001 11.555-19.789 23.179-19.858z" transform="translate(179 344.5)" display="block"/></mask><mask id="m"><path fill="#FFF" d="M-99.931-343.964l256.975-.346c12.662 0 22.211 9.479 21.173 21.103l-44.213 496.445c-1.107 12.178-12.178 21.38-24.909 20.688l-264.932-14.53c-12.316-.692-21.242-11.071-19.927-23.11l52.654-480.392c1.245-11.001 11.555-19.789 23.179-19.858z" transform="translate(179 344.5)" display="block"/></mask><mask id="n"><path fill="#FFF" d="M-99.931-343.964l256.975-.346c12.662 0 22.211 9.479 21.173 21.103l-44.213 496.445c-1.107 12.178-12.178 21.38-24.909 20.688l-264.932-14.53c-12.316-.692-21.242-11.071-19.927-23.11l52.654-480.392c1.245-11.001 11.555-19.789 23.179-19.858z" transform="translate(179 344.5)" display="block"/></mask><radialGradient id="c" spreadMethod="pad" gradientUnits="userSpaceOnUse" cx="-350" cy="32" r="184.361" fx="-347.581" fy="31.463"><stop offset="0%" stop-color="#7893AB"/><stop offset="50%" stop-color="#7893AB"/><stop offset="100%" stop-color="#7893AB"/></radialGradient><radialGradient id="a" spreadMethod="pad" gradientUnits="userSpaceOnUse" cx="-350" cy="32" r="184.361" fx="-347.581" fy="31.463"><stop stop-color="#FFF" offset="0%"/><stop stop-color="#FFF" offset="45%" stop-opacity=".5"/><stop stop-color="#FFF" offset="90%" stop-opacity="0"/></radialGradient></defs><g clip-path="url(#b)"><path fill="url(#c)" mask="url(#d)" fill-opacity=".8" d="M-162-401.737l2.95 683.764-349.136 1.647-.206-684.035L-162-401.737z" transform="translate(516 407)" display="block"/><path fill="#FFF" d="M79.069.536L336.044.19c12.662 0 22.211 9.479 21.173 21.103l-44.213 496.445c-1.107 12.178-12.178 21.38-24.909 20.688l-264.932-14.53c-12.316-.692-21.242-11.071-19.927-23.11L55.89 20.394C57.135 9.393 67.445.605 79.069.536z" display="block"/><path fill="#F4F9FE" d="M120.377 51.46C119.27 61.908 109.1 70.35 97.682 70.35s-19.72-8.372-18.612-18.751c1.107-10.379 11.209-18.82 22.625-18.889 11.347 0 19.72 8.371 18.682 18.75z" display="block"/><g clip-path="url(#e)" transform="translate(179 344.5)" display="block"><path fill="#D8E1EA" d="M15.412-304.802l-.485 4.428c-.207 1.73-1.799 3.045-3.667 3.045l-53.554-.277c-1.868 0-3.252-1.453-3.113-3.252l.484-4.497c.208-1.73 1.799-3.045 3.598-3.045l53.554.346c2.006 0 3.39 1.453 3.183 3.252z"/></g><g clip-path="url(#f)" transform="translate(179 344.5)" display="block"><path fill="#D8E1EA" d="M57.34-304.594l-.484 4.428c-.208 1.73-1.799 3.113-3.667 3.113l-28.784-.207c-1.937 0-3.321-1.453-3.113-3.252l.484-4.567c.208-1.73 1.799-3.113 3.667-3.113l28.784.346c1.868 0 3.321 1.453 3.113 3.252z"/></g><g clip-path="url(#g)" transform="translate(179 344.5)" display="block"><path fill="#D8E1EA" d="M146.389-280.654l-.484 4.497c-.208 1.73-1.799 3.114-3.736 3.114l-186.262-1.591c-1.868 0-3.252-1.454-3.114-3.253l.485-4.566c.207-1.73 1.799-3.113 3.597-3.044l185.916 1.383c2.076.069 3.806 1.661 3.598 3.46z"/></g><g clip-path="url(#h)" transform="translate(179 344.5)" display="block"><path fill="#D8E1EA" d="M57.133 64.193l-.484 4.705c-.207 1.799-1.868 3.183-3.736 3.114l-187.577-8.926c-1.868-.069-3.321-1.661-3.113-3.459l.553-4.705c.208-1.799 1.799-3.114 3.667-3.045l187.231 8.649c2.006.069 3.667 1.799 3.459 3.667z"/></g><g clip-path="url(#i)" transform="translate(179 344.5)" display="block"><path fill="#D8E1EA" d="M116.014 42.467l-.484 4.705c-.208 1.799-1.868 3.183-3.806 3.114l-244.59-10.587c-1.868-.069-3.252-1.66-3.044-3.459l.554-4.705c.208-1.799 1.799-3.114 3.667-3.045L112.555 38.8c1.937 0 3.667 1.73 3.459 3.667z"/></g><g clip-path="url(#j)" transform="translate(179 344.5)" display="block"><path fill="#D8E1EA" d="M118.227 17.143l-.484 4.705c-.208 1.799-1.868 3.183-3.805 3.114l-244.244-9.964c-1.868-.069-3.253-1.591-3.045-3.459l.554-4.705c.208-1.799 1.799-3.114 3.667-3.045l243.829 9.687c2.006.069 3.667 1.799 3.528 3.667z"/></g><g clip-path="url(#k)" transform="translate(179 344.5)" display="block"><path fill="#D8E1EA" d="M-85.401-20.774l-.553 4.567c-.208 1.73-1.799 3.114-3.667 3.044l-36.948-1.66c-1.868-.069-3.253-1.591-3.045-3.46l.554-4.635c.208-1.73 1.799-3.114 3.667-3.045l36.74 1.592c1.868.069 3.46 1.729 3.252 3.597z"/></g><path fill="#80EBFF" d="M46.619 438.86l233.727 10.171c5.397.208 9.479 4.636 8.995 9.756l-2.837 31.551c-.484 5.051-5.051 8.857-10.379 8.649L41.637 487.225c-5.12-.277-8.925-4.567-8.372-9.618l3.46-30.375c.484-4.843 4.912-8.579 9.894-8.372z" display="block"/><path fill="#3CBBD2" d="M195.034 468.266l-.484 4.705c-.208 1.799-1.869 3.183-3.737 3.114l-65.108-3.806c-1.938-.069-3.391-1.73-3.183-3.598l.484-4.774c.208-1.799 1.868-3.183 3.736-3.113l64.902 3.667c1.937.138 3.597 1.868 3.39 3.805z" display="block"/><g mask="url(#l)" display="block"><path fill="#F4F9FE" d="M83.29 93.46l229.231 1.66c5.327.069 9.271 4.082 8.856 8.995l-15.775 176.022c-.416 4.912-4.982 8.718-10.24 8.58l-231.93-6.643c-5.12-.139-8.855-4.29-8.302-9.133l18.405-171.11c.553-4.704 4.843-8.371 9.756-8.371z"/></g><g mask="url(#m)" display="block"><path fill="#DDE7F2" d="M215.495 206.933l-15.988-24.174c-.439-.66-1.483-.715-2.033-.055l-11.702 12.637c-1.154 1.263-3.187 1.373-4.341.219l-4.121-4.065c-.879-.825-2.307-.934-3.296-.165l-19.12 13.955c-1.099.769-.605 2.363.714 2.418l20.054.439 38.515.934c1.154.055 1.978-1.209 1.318-2.143z"/></g><g mask="url(#n)" display="block"><path fill="#DDE7F2" d="M190.004 176.55c-.385 2.693-3.077 4.945-5.989 4.945s-4.945-2.143-4.56-4.835c.384-2.692 3.076-4.945 5.988-4.945 2.912-.055 4.945 2.088 4.561 4.835z"/></g><g clip-path="url(#o)" transform="translate(179 344.5)" display="block"><path fill="#FFFBEB" d="M-95.709-251.04l229.23 1.66c5.327.069 9.271 4.082 8.856 8.995L126.602-64.363c-.416 4.912-4.982 8.718-10.241 8.579l-231.928-6.642c-5.12-.139-8.856-4.29-8.303-9.133l18.405-171.109c.553-4.705 4.843-8.372 9.756-8.372z"/></g><g clip-path="url(#p)" transform="translate(179 344.5)" display="block"><path fill="#FEE895" d="M36.495-137.567l-15.988-24.174c-.439-.66-1.483-.715-2.033-.055L6.772-149.159c-1.154 1.263-3.187 1.373-4.341.219l-4.121-4.065c-.879-.825-2.307-.934-3.296-.165l-19.12 13.955c-1.099.769-.605 2.363.714 2.418l20.054.439 38.515.934c1.154.055 1.978-1.209 1.318-2.143z"/></g><g clip-path="url(#q)" transform="translate(179 344.5)" display="block"><path fill="#FEE895" d="M11.004-167.95c-.385 2.693-3.077 4.945-5.989 4.945S.07-165.148.455-167.84c.384-2.692 3.076-4.945 5.988-4.945 2.912-.055 4.945 2.088 4.561 4.835z"/></g></g></svg>